<svg xmlns="http://www.w3.org/2000/svg" viewBox="0 0 1920 1080">
<defs>
  <filter id="soft"><feGaussianBlur stdDeviation="1.2"/></filter>
  <linearGradient id="paper" x1="0" y1="0" x2="1" y2="1">
    <stop offset="0" stop-color="#f5f8ff"/>
    <stop offset="1" stop-color="#ffffff"/>
  </linearGradient>
</defs>
<rect width="1920" height="1080" fill="url(#paper)"/>
<path d="M140 40 L300 145 L460 40 L620 145 L780 40" fill="none" stroke="#233f7b" stroke-width="18"/><path d="M140 40 L300 145 L460 40 L620 145 L780 40" fill="none" stroke="#e65d6a" stroke-width="7" stroke-dasharray="18 18"/><g stroke="#2e5ca8" stroke-width="4" opacity=".7"><line x1="160" y1="180" x2="240.0" y2="180.0"/><line x1="160" y1="180" x2="229.3" y2="220.0"/><line x1="160" y1="180" x2="200.0" y2="249.3"/><line x1="160" y1="180" x2="160.0" y2="260.0"/><line x1="160" y1="180" x2="120.0" y2="249.3"/><line x1="160" y1="180" x2="90.7" y2="220.0"/><line x1="160" y1="180" x2="80.0" y2="180.0"/><line x1="160" y1="180" x2="90.7" y2="140.0"/><line x1="160" y1="180" x2="120.0" y2="110.7"/><line x1="160" y1="180" x2="160.0" y2="100.0"/><line x1="160" y1="180" x2="200.0" y2="110.7"/><line x1="160" y1="180" x2="229.3" y2="140.0"/></g><g stroke="#e95669" stroke-width="4" opacity=".7"><line x1="1750" y1="160" x2="1845.0" y2="160.0"/><line x1="1750" y1="160" x2="1832.3" y2="207.5"/><line x1="1750" y1="160" x2="1797.5" y2="242.3"/><line x1="1750" y1="160" x2="1750.0" y2="255.0"/><line x1="1750" y1="160" x2="1702.5" y2="242.3"/><line x1="1750" y1="160" x2="1667.7" y2="207.5"/><line x1="1750" y1="160" x2="1655.0" y2="160.0"/><line x1="1750" y1="160" x2="1667.7" y2="112.5"/><line x1="1750" y1="160" x2="1702.5" y2="77.7"/><line x1="1750" y1="160" x2="1750.0" y2="65.0"/><line x1="1750" y1="160" x2="1797.5" y2="77.7"/><line x1="1750" y1="160" x2="1832.3" y2="112.5"/></g><g stroke="#2e5ca8" stroke-width="4" opacity=".7"><line x1="1600" y1="260" x2="1652.0" y2="260.0"/><line x1="1600" y1="260" x2="1645.0" y2="286.0"/><line x1="1600" y1="260" x2="1626.0" y2="305.0"/><line x1="1600" y1="260" x2="1600.0" y2="312.0"/><line x1="1600" y1="260" x2="1574.0" y2="305.0"/><line x1="1600" y1="260" x2="1555.0" y2="286.0"/><line x1="1600" y1="260" x2="1548.0" y2="260.0"/><line x1="1600" y1="260" x2="1555.0" y2="234.0"/><line x1="1600" y1="260" x2="1574.0" y2="215.0"/><line x1="1600" y1="260" x2="1600.0" y2="208.0"/><line x1="1600" y1="260" x2="1626.0" y2="215.0"/><line x1="1600" y1="260" x2="1645.0" y2="234.0"/></g><g transform="translate(85 720)"><rect width="180" height="240" fill="#fff"/><rect width="180" height="22" y="22" fill="#e75664"/><rect width="180" height="22" y="66" fill="#e75664"/><rect width="180" height="22" y="110" fill="#e75664"/><rect width="180" height="22" y="154" fill="#e75664"/><rect width="180" height="22" y="198" fill="#e75664"/><rect width="78" height="110" fill="#365b9d"/><g fill="#fff"><circle cx="18" cy="20" r="4"/><circle cx="42" cy="20" r="4"/><circle cx="66" cy="20" r="4"/><circle cx="30" cy="45" r="4"/><circle cx="54" cy="45" r="4"/><circle cx="18" cy="70" r="4"/><circle cx="42" cy="70" r="4"/><circle cx="66" cy="70" r="4"/></g></g>
</svg>