<svg xmlns="http://www.w3.org/2000/svg" viewBox="0 0 1920 1080">
<defs>
  <filter id="soft"><feGaussianBlur stdDeviation="1.2"/></filter>
  <linearGradient id="paper" x1="0" y1="0" x2="1" y2="1">
    <stop offset="0" stop-color="#fffdf4"/>
    <stop offset="1" stop-color="#ffffff"/>
  </linearGradient>
</defs>
<rect width="1920" height="1080" fill="url(#paper)"/>
<ellipse cx="117.9" cy="130.0" rx="15.5" ry="23.56" fill="#f6a6c7" opacity=".75" transform="rotate(90 117.9 130.0)"/><ellipse cx="104.0" cy="154.2" rx="15.5" ry="23.56" fill="#f6a6c7" opacity=".75" transform="rotate(150 104.0 154.2)"/><ellipse cx="76.1" cy="154.2" rx="15.5" ry="23.56" fill="#f6a6c7" opacity=".75" transform="rotate(210 76.1 154.2)"/><ellipse cx="62.1" cy="130.0" rx="15.5" ry="23.56" fill="#f6a6c7" opacity=".75" transform="rotate(270 62.1 130.0)"/><ellipse cx="76.0" cy="105.8" rx="15.5" ry="23.56" fill="#f6a6c7" opacity=".75" transform="rotate(330 76.0 105.8)"/><ellipse cx="104.0" cy="105.8" rx="15.5" ry="23.56" fill="#f6a6c7" opacity=".75" transform="rotate(390 104.0 105.8)"/><circle cx="90" cy="130" r="13.64" fill="#f2c94c"/><ellipse cx="1830.6" cy="150.0" rx="17.0" ry="25.84" fill="#f4b2d0" opacity=".75" transform="rotate(90 1830.6 150.0)"/><ellipse cx="1815.3" cy="176.5" rx="17.0" ry="25.84" fill="#f4b2d0" opacity=".75" transform="rotate(150 1815.3 176.5)"/><ellipse cx="1784.7" cy="176.5" rx="17.0" ry="25.84" fill="#f4b2d0" opacity=".75" transform="rotate(210 1784.7 176.5)"/><ellipse cx="1769.4" cy="150.0" rx="17.0" ry="25.84" fill="#f4b2d0" opacity=".75" transform="rotate(270 1769.4 150.0)"/><ellipse cx="1784.7" cy="123.5" rx="17.0" ry="25.84" fill="#f4b2d0" opacity=".75" transform="rotate(330 1784.7 123.5)"/><ellipse cx="1815.3" cy="123.5" rx="17.0" ry="25.84" fill="#f4b2d0" opacity=".75" transform="rotate(390 1815.3 123.5)"/><circle cx="1800" cy="150" r="14.96" fill="#f2c94c"/><ellipse cx="144.8" cy="930.0" rx="13.75" ry="20.9" fill="#ef9fbd" opacity=".75" transform="rotate(90 144.8 930.0)"/><ellipse cx="132.4" cy="951.4" rx="13.75" ry="20.9" fill="#ef9fbd" opacity=".75" transform="rotate(150 132.4 951.4)"/><ellipse cx="107.6" cy="951.4" rx="13.75" ry="20.9" fill="#ef9fbd" opacity=".75" transform="rotate(210 107.6 951.4)"/><ellipse cx="95.2" cy="930.0" rx="13.75" ry="20.9" fill="#ef9fbd" opacity=".75" transform="rotate(270 95.2 930.0)"/><ellipse cx="107.6" cy="908.6" rx="13.75" ry="20.9" fill="#ef9fbd" opacity=".75" transform="rotate(330 107.6 908.6)"/><ellipse cx="132.4" cy="908.6" rx="13.75" ry="20.9" fill="#ef9fbd" opacity=".75" transform="rotate(390 132.4 908.6)"/><circle cx="120" cy="930" r="12.1" fill="#f2c94c"/><ellipse cx="1807.0" cy="930.0" rx="15.0" ry="22.8" fill="#f5c46c" opacity=".75" transform="rotate(90 1807.0 930.0)"/><ellipse cx="1793.5" cy="953.4" rx="15.0" ry="22.8" fill="#f5c46c" opacity=".75" transform="rotate(150 1793.5 953.4)"/><ellipse cx="1766.5" cy="953.4" rx="15.0" ry="22.8" fill="#f5c46c" opacity=".75" transform="rotate(210 1766.5 953.4)"/><ellipse cx="1753.0" cy="930.0" rx="15.0" ry="22.8" fill="#f5c46c" opacity=".75" transform="rotate(270 1753.0 930.0)"/><ellipse cx="1766.5" cy="906.6" rx="15.0" ry="22.8" fill="#f5c46c" opacity=".75" transform="rotate(330 1766.5 906.6)"/><ellipse cx="1793.5" cy="906.6" rx="15.0" ry="22.8" fill="#f5c46c" opacity=".75" transform="rotate(390 1793.5 906.6)"/><circle cx="1780" cy="930" r="13.2" fill="#f2c94c"/><circle cx="1730" cy="120" r="74" fill="#f6d75a" opacity=".75"/><g stroke="#f0c93e" stroke-width="6" opacity=".7"><line x1="1730" y1="20" x2="1730" y2="-25" transform="rotate(0 1730 120)"/><line x1="1730" y1="20" x2="1730" y2="-25" transform="rotate(45 1730 120)"/><line x1="1730" y1="20" x2="1730" y2="-25" transform="rotate(90 1730 120)"/><line x1="1730" y1="20" x2="1730" y2="-25" transform="rotate(135 1730 120)"/><line x1="1730" y1="20" x2="1730" y2="-25" transform="rotate(180 1730 120)"/><line x1="1730" y1="20" x2="1730" y2="-25" transform="rotate(225 1730 120)"/><line x1="1730" y1="20" x2="1730" y2="-25" transform="rotate(270 1730 120)"/><line x1="1730" y1="20" x2="1730" y2="-25" transform="rotate(315 1730 120)"/></g>
</svg>