<svg xmlns="http://www.w3.org/2000/svg" viewBox="0 0 1920 1080">
<defs>
  <filter id="soft"><feGaussianBlur stdDeviation="1.2"/></filter>
  <linearGradient id="paper" x1="0" y1="0" x2="1" y2="1">
    <stop offset="0" stop-color="#f4f9e9"/>
    <stop offset="1" stop-color="#ffffff"/>
  </linearGradient>
</defs>
<rect width="1920" height="1080" fill="url(#paper)"/>
<g fill="#78b842" opacity=".78"><circle cx="104.8" cy="133.8" r="25.200000000000003"/><circle cx="155.2" cy="133.8" r="25.200000000000003"/><circle cx="130" cy="166.2" r="25.200000000000003"/><rect x="126" y="159.0" width="8" height="72.0" rx="4" transform="rotate(-18 130 150)"/></g><g fill="#78b842" opacity=".78"><circle cx="1742.0" cy="142.0" r="28.000000000000004"/><circle cx="1798.0" cy="142.0" r="28.000000000000004"/><circle cx="1770" cy="178.0" r="28.000000000000004"/><rect x="1766" y="170.0" width="8" height="80.0" rx="4" transform="rotate(-18 1770 160)"/></g><g fill="#78b842" opacity=".78"><circle cx="93.2" cy="869.2" r="16.8"/><circle cx="126.8" cy="869.2" r="16.8"/><circle cx="110" cy="890.8" r="16.8"/><rect x="106" y="886.0" width="8" height="48.0" rx="4" transform="rotate(-18 110 880)"/></g><g fill="#78b842" opacity=".78"><circle cx="1780.4" cy="857.4" r="19.6"/><circle cx="1819.6" cy="857.4" r="19.6"/><circle cx="1800" cy="882.6" r="19.6"/><rect x="1796" y="877.0" width="8" height="56.0" rx="4" transform="rotate(-18 1800 870)"/></g><ellipse cx="1740" cy="940" rx="120" ry="55" fill="#75aa3c" opacity=".75"/><rect x="1665" y="850" width="150" height="100" rx="25" fill="#e2ba43" opacity=".78"/><circle cx="1690" cy="875" r="16" fill="#f5df70"/><circle cx="1790" cy="900" r="18" fill="#f5df70"/>
</svg>