<svg xmlns="http://www.w3.org/2000/svg" viewBox="0 0 1920 1080">
<defs>
  <filter id="soft"><feGaussianBlur stdDeviation="1.2"/></filter>
  <linearGradient id="paper" x1="0" y1="0" x2="1" y2="1">
    <stop offset="0" stop-color="#f4fbff"/>
    <stop offset="1" stop-color="#ffffff"/>
  </linearGradient>
</defs>
<rect width="1920" height="1080" fill="url(#paper)"/>
<g stroke="#c9e4f3" stroke-width="5" stroke-linecap="round" opacity="0.9"><line x1="88.0" y1="130.0" x2="192.0" y2="130.0"/><line x1="114.0" y1="85.0" x2="166.0" y2="175.0"/><line x1="166.0" y1="85.0" x2="114.0" y2="175.0"/></g><g stroke="#c9e4f3" stroke-width="5" stroke-linecap="round" opacity="0.9"><line x1="1718.0" y1="120.0" x2="1802.0" y2="120.0"/><line x1="1739.0" y1="83.6" x2="1781.0" y2="156.4"/><line x1="1781.0" y1="83.6" x2="1739.0" y2="156.4"/></g><g stroke="#c9e4f3" stroke-width="5" stroke-linecap="round" opacity="0.9"><line x1="1625.0" y1="230.0" x2="1675.0" y2="230.0"/><line x1="1637.5" y1="208.3" x2="1662.5" y2="251.7"/><line x1="1662.5" y1="208.3" x2="1637.5" y2="251.7"/></g><g transform="translate(40 600)"><path d="M160 0 L0 360 H320Z" fill="#4f8e67"/><path d="M160 95 L40 390 H280Z" fill="#3d7f59"/><rect x="135" y="360" width="50" height="120" fill="#8f6447"/><circle cx="95" cy="225" r="16" fill="#d94d5a"/><circle cx="210" cy="270" r="18" fill="#e3bd43"/><circle cx="150" cy="155" r="15" fill="#f49fcc"/></g><g transform="translate(1560 610)"><path d="M160 0 L0 360 H320Z" fill="#4f8e67"/><path d="M160 95 L40 390 H280Z" fill="#3d7f59"/><rect x="135" y="360" width="50" height="120" fill="#8f6447"/><circle cx="95" cy="225" r="16" fill="#d94d5a"/><circle cx="210" cy="270" r="18" fill="#e3bd43"/><circle cx="150" cy="155" r="15" fill="#f49fcc"/></g><g transform="translate(880 860)"><circle cx="60" cy="30" r="28" fill="#b86b3f"/><rect x="42" y="55" width="36" height="95" rx="18" fill="#b86b3f"/><line x1="45" y1="80" x2="0" y2="110" stroke="#b86b3f" stroke-width="22" stroke-linecap="round"/><line x1="75" y1="80" x2="120" y2="110" stroke="#b86b3f" stroke-width="22" stroke-linecap="round"/><line x1="50" y1="140" x2="20" y2="185" stroke="#b86b3f" stroke-width="22" stroke-linecap="round"/><line x1="70" y1="140" x2="100" y2="185" stroke="#b86b3f" stroke-width="22" stroke-linecap="round"/><circle cx="50" cy="25" r="4" fill="#fff"/><circle cx="70" cy="25" r="4" fill="#fff"/></g>
</svg>