<svg xmlns="http://www.w3.org/2000/svg" viewBox="0 0 1920 1080">
<defs>
  <filter id="soft"><feGaussianBlur stdDeviation="1.2"/></filter>
  <linearGradient id="paper" x1="0" y1="0" x2="1" y2="1">
    <stop offset="0" stop-color="#fff6e9"/>
    <stop offset="1" stop-color="#ffffff"/>
  </linearGradient>
</defs>
<rect width="1920" height="1080" fill="url(#paper)"/>
<path d="M100 140 C149.0 105.0,156.0 168.0,100 196.0 C44.0 168.0,51.0 105.0,100 140Z" fill="#e28a35" opacity=".82" transform="rotate(-20 100 140)"/><path d="M200 110 C238.5 82.5,244.0 132.0,200 154.0 C156.0 132.0,161.5 82.5,200 110Z" fill="#c7612e" opacity=".82" transform="rotate(30 200 110)"/><path d="M1780 130 C1832.5 92.5,1840.0 160.0,1780 190.0 C1720.0 160.0,1727.5 92.5,1780 130Z" fill="#eea03b" opacity=".82" transform="rotate(15 1780 130)"/><path d="M1680 100 C1718.5 72.5,1724.0 122.0,1680 144.0 C1636.0 122.0,1641.5 72.5,1680 100Z" fill="#bb5a2d" opacity=".82" transform="rotate(-25 1680 100)"/><path d="M80 930 C136.0 890.0,144.0 962.0,80 994.0 C16.0 962.0,24.0 890.0,80 930Z" fill="#df7a2e" opacity=".82" transform="rotate(40 80 930)"/><path d="M1800 930 C1859.5 887.5,1868.0 964.0,1800 998.0 C1732.0 964.0,1740.5 887.5,1800 930Z" fill="#c9642d" opacity=".82" transform="rotate(-25 1800 930)"/>
</svg>