<svg xmlns="http://www.w3.org/2000/svg" viewBox="0 0 1920 1080">
<defs>
  <filter id="soft"><feGaussianBlur stdDeviation="1.2"/></filter>
  <linearGradient id="paper" x1="0" y1="0" x2="1" y2="1">
    <stop offset="0" stop-color="#fff3f7"/>
    <stop offset="1" stop-color="#ffffff"/>
  </linearGradient>
</defs>
<rect width="1920" height="1080" fill="url(#paper)"/>
<path d="M 100 181.0 C 47.5 151.0, 58.75 103.75, 100 133.0 C 141.25 103.75, 152.5 151.0, 100 181.0 Z" fill="#f49fcc" opacity="0.75"/><path d="M 1800 195.2 C 1737.0 159.2, 1750.5 102.5, 1800 137.6 C 1849.5 102.5, 1863.0 159.2, 1800 195.2 Z" fill="#f49fcc" opacity="0.75"/><path d="M 120 793.44 C 86.4 774.24, 93.6 744.0, 120 762.72 C 146.4 744.0, 153.6 774.24, 120 793.44 Z" fill="#f49fcc" opacity="0.75"/><path d="M 1760 847.36 C 1716.6 822.56, 1725.9 783.5, 1760 807.68 C 1794.1 783.5, 1803.4 822.56, 1760 847.36 Z" fill="#f49fcc" opacity="0.75"/><ellipse cx="179.2" cy="970.0" rx="16.25" ry="24.7" fill="#f89db8" opacity=".75" transform="rotate(90 179.2 970.0)"/><ellipse cx="164.6" cy="995.3" rx="16.25" ry="24.7" fill="#f89db8" opacity=".75" transform="rotate(150 164.6 995.3)"/><ellipse cx="135.4" cy="995.3" rx="16.25" ry="24.7" fill="#f89db8" opacity=".75" transform="rotate(210 135.4 995.3)"/><ellipse cx="120.8" cy="970.0" rx="16.25" ry="24.7" fill="#f89db8" opacity=".75" transform="rotate(270 120.8 970.0)"/><ellipse cx="135.4" cy="944.7" rx="16.25" ry="24.7" fill="#f89db8" opacity=".75" transform="rotate(330 135.4 944.7)"/><ellipse cx="164.6" cy="944.7" rx="16.25" ry="24.7" fill="#f89db8" opacity=".75" transform="rotate(390 164.6 944.7)"/><circle cx="150" cy="970" r="14.3" fill="#f2c94c"/><ellipse cx="1801.5" cy="960.0" rx="17.5" ry="26.6" fill="#ef86a8" opacity=".75" transform="rotate(90 1801.5 960.0)"/><ellipse cx="1785.8" cy="987.3" rx="17.5" ry="26.6" fill="#ef86a8" opacity=".75" transform="rotate(150 1785.8 987.3)"/><ellipse cx="1754.2" cy="987.3" rx="17.5" ry="26.6" fill="#ef86a8" opacity=".75" transform="rotate(210 1754.2 987.3)"/><ellipse cx="1738.5" cy="960.0" rx="17.5" ry="26.6" fill="#ef86a8" opacity=".75" transform="rotate(270 1738.5 960.0)"/><ellipse cx="1754.2" cy="932.7" rx="17.5" ry="26.6" fill="#ef86a8" opacity=".75" transform="rotate(330 1754.2 932.7)"/><ellipse cx="1785.8" cy="932.7" rx="17.5" ry="26.6" fill="#ef86a8" opacity=".75" transform="rotate(390 1785.8 932.7)"/><circle cx="1770" cy="960" r="15.4" fill="#f2c94c"/><rect x="1650" y="860" width="170" height="120" rx="22" fill="#f6b1c6" opacity=".72"/><path d="M1668 865 Q1735 790 1800 865" fill="none" stroke="#b96a83" stroke-width="10"/>
</svg>