<svg xmlns="http://www.w3.org/2000/svg" viewBox="0 0 1920 1080">
<defs>
  <filter id="soft"><feGaussianBlur stdDeviation="1.2"/></filter>
  <linearGradient id="paper" x1="0" y1="0" x2="1" y2="1">
    <stop offset="0" stop-color="#fff8ed"/>
    <stop offset="1" stop-color="#ffffff"/>
  </linearGradient>
</defs>
<rect width="1920" height="1080" fill="url(#paper)"/>
<ellipse cx="137.9" cy="970.0" rx="15.5" ry="23.56" fill="#f6a6bb" opacity=".75" transform="rotate(90 137.9 970.0)"/><ellipse cx="124.0" cy="994.2" rx="15.5" ry="23.56" fill="#f6a6bb" opacity=".75" transform="rotate(150 124.0 994.2)"/><ellipse cx="96.1" cy="994.2" rx="15.5" ry="23.56" fill="#f6a6bb" opacity=".75" transform="rotate(210 96.1 994.2)"/><ellipse cx="82.1" cy="970.0" rx="15.5" ry="23.56" fill="#f6a6bb" opacity=".75" transform="rotate(270 82.1 970.0)"/><ellipse cx="96.0" cy="945.8" rx="15.5" ry="23.56" fill="#f6a6bb" opacity=".75" transform="rotate(330 96.0 945.8)"/><ellipse cx="124.0" cy="945.8" rx="15.5" ry="23.56" fill="#f6a6bb" opacity=".75" transform="rotate(390 124.0 945.8)"/><circle cx="110" cy="970" r="13.64" fill="#f2c94c"/><ellipse cx="241.6" cy="980.0" rx="12.0" ry="18.240000000000002" fill="#f4cf68" opacity=".75" transform="rotate(90 241.6 980.0)"/><ellipse cx="230.8" cy="998.7" rx="12.0" ry="18.240000000000002" fill="#f4cf68" opacity=".75" transform="rotate(150 230.8 998.7)"/><ellipse cx="209.2" cy="998.7" rx="12.0" ry="18.240000000000002" fill="#f4cf68" opacity=".75" transform="rotate(210 209.2 998.7)"/><ellipse cx="198.4" cy="980.0" rx="12.0" ry="18.240000000000002" fill="#f4cf68" opacity=".75" transform="rotate(270 198.4 980.0)"/><ellipse cx="209.2" cy="961.3" rx="12.0" ry="18.240000000000002" fill="#f4cf68" opacity=".75" transform="rotate(330 209.2 961.3)"/><ellipse cx="230.8" cy="961.3" rx="12.0" ry="18.240000000000002" fill="#f4cf68" opacity=".75" transform="rotate(390 230.8 961.3)"/><circle cx="220" cy="980" r="10.56" fill="#f2c94c"/><ellipse cx="1726.1" cy="980.0" rx="14.5" ry="22.04" fill="#eea4c1" opacity=".75" transform="rotate(90 1726.1 980.0)"/><ellipse cx="1713.0" cy="1002.6" rx="14.5" ry="22.04" fill="#eea4c1" opacity=".75" transform="rotate(150 1713.0 1002.6)"/><ellipse cx="1687.0" cy="1002.6" rx="14.5" ry="22.04" fill="#eea4c1" opacity=".75" transform="rotate(210 1687.0 1002.6)"/><ellipse cx="1673.9" cy="980.0" rx="14.5" ry="22.04" fill="#eea4c1" opacity=".75" transform="rotate(270 1673.9 980.0)"/><ellipse cx="1687.0" cy="957.4" rx="14.5" ry="22.04" fill="#eea4c1" opacity=".75" transform="rotate(330 1687.0 957.4)"/><ellipse cx="1713.0" cy="957.4" rx="14.5" ry="22.04" fill="#eea4c1" opacity=".75" transform="rotate(390 1713.0 957.4)"/><circle cx="1700" cy="980" r="12.76" fill="#f2c94c"/><ellipse cx="1780" cy="870" rx="95" ry="125" fill="#fff" opacity=".9"/><ellipse cx="1745" cy="725" rx="35" ry="100" fill="#fff" transform="rotate(-12 1745 725)"/><ellipse cx="1815" cy="725" rx="35" ry="100" fill="#fff" transform="rotate(12 1815 725)"/><circle cx="1750" cy="850" r="9" fill="#333"/><circle cx="1810" cy="850" r="9" fill="#333"/><ellipse cx="1780" cy="890" rx="18" ry="12" fill="#f3a6b7"/><ellipse cx="120" cy="875" rx="44" ry="58" fill="#f8c3d1"/><ellipse cx="190" cy="900" rx="45" ry="60" fill="#a7d8ef"/><ellipse cx="260" cy="875" rx="44" ry="58" fill="#f4dc82"/>
</svg>